<svg xmlns="http://www.w3.org/2000/svg" style="display:none">
  <defs>
    <symbol id="i-map" viewBox="0 0 24 24" fill="none" stroke="currentColor" stroke-width="1.7" stroke-linecap="round" stroke-linejoin="round">
      <path d="M9 4l-6 2v14l6-2 6 2 6-2V4l-6 2-6-2z"/>
      <path d="M9 4v14"/>
      <path d="M15 6v14"/>
    </symbol>
    <symbol id="i-trophy" viewBox="0 0 24 24" fill="none" stroke="currentColor" stroke-width="1.7" stroke-linecap="round" stroke-linejoin="round">
      <path d="M6 4h12v3a6 6 0 11-12 0V4z"/>
      <path d="M6 4H3v2a3 3 0 003 3"/>
      <path d="M18 4h3v2a3 3 0 01-3 3"/>
      <path d="M9 17h6"/>
      <path d="M12 13v4"/>
      <path d="M8 21h8"/>
    </symbol>
    <symbol id="i-leaf" viewBox="0 0 24 24" fill="none" stroke="currentColor" stroke-width="1.7" stroke-linecap="round" stroke-linejoin="round">
      <path d="M11 20A7 7 0 014 13c0-5 3-9 8-11 5 2 8 6 8 11a7 7 0 01-7 7"/>
      <path d="M12 2v18"/>
    </symbol>
    <symbol id="i-distillery" viewBox="0 0 24 24" fill="none" stroke="currentColor" stroke-width="1.7" stroke-linecap="round" stroke-linejoin="round">
      <path d="M3 21h18"/>
      <path d="M5 21V10l5-3v3l5-3v14"/>
      <path d="M15 11h4l1 10"/>
      <path d="M9 14v.01"/>
      <path d="M9 18v.01"/>
      <path d="M14 14v.01"/>
      <path d="M14 18v.01"/>
    </symbol>
    <symbol id="i-glass" viewBox="0 0 24 24" fill="none" stroke="currentColor" stroke-width="1.7" stroke-linecap="round" stroke-linejoin="round">
      <path d="M5 3h14l-2 11a5 5 0 01-10 0L5 3z"/>
      <path d="M12 19v3"/>
      <path d="M9 22h6"/>
    </symbol>
    <symbol id="i-gift" viewBox="0 0 24 24" fill="none" stroke="currentColor" stroke-width="1.7" stroke-linecap="round" stroke-linejoin="round">
      <rect x="3" y="8" width="18" height="4" rx="1"/>
      <path d="M12 8v13"/>
      <path d="M5 12v9h14v-9"/>
      <path d="M7.5 8a2.5 2.5 0 010-5C9 3 11 5 12 8c1-3 3-5 4.5-5a2.5 2.5 0 010 5"/>
    </symbol>
    <symbol id="i-pin" viewBox="0 0 24 24" fill="none" stroke="currentColor" stroke-width="1.7" stroke-linecap="round" stroke-linejoin="round">
      <path d="M12 21s-7-7-7-12a7 7 0 0114 0c0 5-7 12-7 12z"/>
      <circle cx="12" cy="9" r="2.5"/>
    </symbol>
    <symbol id="i-search" viewBox="0 0 24 24" fill="none" stroke="currentColor" stroke-width="1.8" stroke-linecap="round" stroke-linejoin="round">
      <circle cx="11" cy="11" r="7"/>
      <path d="M20 20l-4-4"/>
    </symbol>
    <symbol id="i-menu" viewBox="0 0 24 24" fill="none" stroke="currentColor" stroke-width="1.8" stroke-linecap="round">
      <path d="M4 7h16M4 12h16M4 17h16"/>
    </symbol>
    <symbol id="i-arrow-right" viewBox="0 0 24 24" fill="none" stroke="currentColor" stroke-width="1.8" stroke-linecap="round" stroke-linejoin="round">
      <path d="M5 12h14"/>
      <path d="M13 6l6 6-6 6"/>
    </symbol>
    <symbol id="i-arrow-up-right" viewBox="0 0 24 24" fill="none" stroke="currentColor" stroke-width="1.8" stroke-linecap="round" stroke-linejoin="round">
      <path d="M7 17L17 7"/>
      <path d="M7 7h10v10"/>
    </symbol>
    <symbol id="i-medal" viewBox="0 0 24 24" fill="none" stroke="currentColor" stroke-width="1.7" stroke-linecap="round" stroke-linejoin="round">
      <circle cx="12" cy="15" r="6"/>
      <path d="M8 9L5 3h6l3 6"/>
      <path d="M16 9l3-6h-6l-3 6"/>
      <path d="M10 15l2 2 2-2"/>
    </symbol>
    <symbol id="i-info" viewBox="0 0 24 24" fill="none" stroke="currentColor" stroke-width="1.7" stroke-linecap="round" stroke-linejoin="round">
      <circle cx="12" cy="12" r="9"/>
      <path d="M12 11v5"/>
      <circle cx="12" cy="8" r="0.8" fill="currentColor"/>
    </symbol>
    <symbol id="i-shield-check" viewBox="0 0 24 24" fill="none" stroke="currentColor" stroke-width="1.7" stroke-linecap="round" stroke-linejoin="round">
      <path d="M12 3l8 3v6c0 5-3.5 8-8 9-4.5-1-8-4-8-9V6l8-3z"/>
      <path d="M9 12l2 2 4-4"/>
    </symbol>
    <symbol id="i-news" viewBox="0 0 24 24" fill="none" stroke="currentColor" stroke-width="1.7" stroke-linecap="round" stroke-linejoin="round">
      <rect x="3" y="4" width="18" height="16" rx="2"/>
      <path d="M7 8h10"/>
      <path d="M7 12h10"/>
      <path d="M7 16h6"/>
    </symbol>
    <symbol id="i-warning" viewBox="0 0 24 24" fill="none" stroke="currentColor" stroke-width="1.7" stroke-linecap="round" stroke-linejoin="round">
      <path d="M12 3L2 21h20L12 3z"/>
      <path d="M12 10v5"/>
      <circle cx="12" cy="18" r="0.7" fill="currentColor"/>
    </symbol>
    <symbol id="i-eye" viewBox="0 0 24 24" fill="none" stroke="currentColor" stroke-width="1.7" stroke-linecap="round" stroke-linejoin="round">
      <path d="M2 12s3.5-7 10-7 10 7 10 7-3.5 7-10 7-10-7-10-7z"/>
      <circle cx="12" cy="12" r="3"/>
    </symbol>
    <symbol id="i-kettle" viewBox="0 0 24 24" fill="none" stroke="currentColor" stroke-width="1.7" stroke-linecap="round" stroke-linejoin="round">
      <path d="M4 14a8 6 0 0016 0v-1a8 5 0 00-16 0v1z"/>
      <path d="M6 9c1.2-3 10.8-3 12 0"/>
      <path d="M19 11l2-1.5"/>
      <path d="M11 4h2"/>
      <path d="M12 4v3"/>
    </symbol>
    <symbol id="i-pattern" viewBox="0 0 24 24" fill="currentColor" stroke="none">
      <circle cx="6" cy="6" r="1.5"/><circle cx="12" cy="6" r="1.5"/><circle cx="18" cy="6" r="1.5"/>
      <circle cx="6" cy="12" r="1.5"/><circle cx="12" cy="12" r="1.5"/><circle cx="18" cy="12" r="1.5"/>
      <circle cx="6" cy="18" r="1.5"/><circle cx="12" cy="18" r="1.5"/><circle cx="18" cy="18" r="1.5"/>
    </symbol>
    <symbol id="i-flame" viewBox="0 0 24 24" fill="none" stroke="currentColor" stroke-width="1.7" stroke-linecap="round" stroke-linejoin="round">
      <path d="M12 3c1.5 4 5 5.5 5 9.5A5 5 0 017 12.5c0-1.8.8-3 1.8-4 .2 1.8 1.2 2.7 2.2 2.7 1.2-1.8-1.2-4-1.2-8.2z"/>
    </symbol>
    <symbol id="i-yen" viewBox="0 0 24 24" fill="none" stroke="currentColor" stroke-width="1.7" stroke-linecap="round" stroke-linejoin="round">
      <path d="M7 5l5 7 5-7"/>
      <path d="M12 12v7"/>
      <path d="M8 14h8"/>
      <path d="M8 17h8"/>
    </symbol>
  </defs>
</svg>
